# xmcd
# 
# Track frame offsets:
#     150
#     13624
#     28740
#     43442
#     58881
#     72957
#     86552
#     99615
#     113498
#     125777
#     140416
#     153504
#     165982
#     180415
#     195211
#     209979
#     225467
# 
# Disc length: 3208
# 
# Revision: 0
# Processed by: cddbd v1.5.2PL0 Copyright (c) Steve Scherf et al.
# Submitted via: BonkEnc v1.0.15
# 
DISCID=ec0c8611
DTITLE=LUAN SANTANA - QUANDO CHEGA A NOITE
DYEAR=2011
DGENRE=Country
TTITLE0=VOCÊ DE MIM NÃO SAI
TTITLE1=COLADINHO
TTITLE2=QUANDO CHEGA A NOITE
TTITLE3=24 HORAS DE VOCÊ
TTITLE4=INCONDICIONAL
TTITLE5=ERRO MEU
TTITLE6=UNICO
TTITLE7=TELEPATIA
TTITLE8=SURREAL
TTITLE9=MOMENTO CERTO
TTITLE10=VIROU STAR
TTITLE11=NEGA
TTITLE12=TE VIVO
TTITLE13=RAIOS E TROVOADAS
TTITLE14=03 DE MAIO
TTITLE15=ESQUECI DE TE ESQUECER
TTITLE16=PROMETE
EXTD=N/A
EXTT0=NA
EXTT1=NA
EXTT2=NA
EXTT3=NA
EXTT4=NA
EXTT5=NA
EXTT6=NA
EXTT7=NA
EXTT8=NA
EXTT9=NA
EXTT10=NA
EXTT11=NA
EXTT12=NA
EXTT13=NA
EXTT14=NA
EXTT15=NA
EXTT16=NA
PLAYORDER=
